<svg width="500" height="500" viewBox="0 0 500 500" fill="none" xmlns="http://www.w3.org/2000/svg">
<rect width="500" height="500" rx="250" fill="#110A2E"/>
<g filter="url(#filter0_dd)">
<rect x="115" y="305.394" width="33.6524" height="49.593" fill="#7BD6DC"/>
<path d="M264.283 226.344C265.359 226.344 266.242 227.195 266.282 228.27L267.354 257.284C267.396 258.411 266.498 259.349 265.371 259.358L184.367 259.98C183.263 259.988 182.361 259.1 182.352 257.995L182.125 228.359C182.116 227.249 183.014 226.344 184.125 226.344L264.283 226.344Z" fill="#7BD6DC"/>
<rect x="300.974" y="303.623" width="33.6524" height="49.593" fill="#7BD6DC"/>
<path d="M139.796 425.303C130.941 419.635 135.369 422.292 131.118 419.281C116.771 411.665 115 409.539 115 371.459V339.046H130.941C143.87 339.046 146.881 338.515 146.881 336.39C146.881 334.973 148.121 333.733 149.538 333.733C151.84 333.733 152.195 340.109 152.195 380.669V427.605H147.767C143.87 427.605 144.224 427.605 139.796 425.303Z" fill="#FDD1AC"/>
<path d="M297.431 380.669C297.431 340.109 297.786 333.733 300.088 333.733C301.505 333.733 302.745 334.973 302.745 336.39C302.745 338.515 305.756 339.046 318.686 339.046H334.626L334.449 371.459C334.272 409.362 332.855 409.893 319.217 418.749C315.143 422.292 311.601 424.417 309.83 425.834C308.058 426.72 307.173 426.72 303.631 427.605H297.431V380.669Z" fill="#FDD1AC"/>
<path d="M217.728 243.934C213.123 241.986 206.216 236.141 204.09 232.244C202.85 230.119 201.965 221.972 201.788 214.001V199.655L192.223 190.09C182.482 180.349 178.762 172.202 178.762 160.689C178.762 155.552 178.231 154.844 173.803 154.844C166.364 154.844 164.593 151.833 164.593 139.435C164.593 130.225 165.124 127.922 168.135 126.151C170.084 124.911 171.678 122.963 171.678 121.723C171.678 119.952 178.94 119.42 202.319 119.42C230.835 119.42 233.315 119.243 236.326 115.878C240.577 111.273 249.255 111.273 254.215 116.055C257.403 119.066 260.414 119.775 268.207 119.598C274.937 119.42 277.948 120.129 277.948 121.723C277.948 122.963 279.542 125.265 281.491 127.036C284.325 129.339 285.033 132.173 285.033 140.32C285.033 151.833 283.085 154.844 275.823 154.844C271.572 154.844 270.864 155.552 270.864 159.803C270.864 170.607 266.081 180.88 256.871 190.09L247.838 199.123V213.47C247.838 228.171 244.296 236.318 239.514 238.089C238.451 238.089 238.097 238.975 235.794 240.923C233.352 242.99 222.333 245.882 217.728 243.934Z" fill="#FDD1AC"/>
<path d="M146.881 325.762C146.881 323.637 143.87 323.106 130.941 323.106H115V297.601C115 269.97 116.594 262.177 124.919 251.373C127.398 248.008 132.358 243.403 135.9 241.277C142.276 237.381 183.722 225.16 186.024 226.577C186.556 227.108 187.618 229.588 188.15 232.244C189.744 240.215 199.131 251.55 207.455 255.624C217.905 260.583 231.721 260.583 242.17 255.624C250.495 251.55 259.882 240.215 261.476 232.244C262.008 229.588 263.07 227.108 263.602 226.577C266.081 225.16 307.527 237.381 313.903 241.454C321.519 246.237 327.718 253.853 331.792 263.594C333.917 268.731 334.626 276.701 334.626 296.715V323.106H318.685C305.756 323.106 302.745 323.637 302.745 325.762C302.745 327.179 301.505 328.419 300.088 328.419C298.317 328.419 297.431 326.648 297.431 323.106V317.792H224.813H152.195V323.106C152.195 326.648 151.309 328.419 149.538 328.419C148.121 328.419 146.881 327.179 146.881 325.762V325.762Z" fill="url(#paint0_linear)"/>
<path d="M207.987 211.699C203.382 210.813 202.673 209.75 202.142 203.906C201.433 196.467 201.433 196.467 210.112 200.009C217.905 203.374 228.887 203.374 238.097 200.009C247.661 196.467 247.838 196.467 247.838 203.197C247.838 208.865 247.484 209.219 238.805 211.167C229.418 213.47 216.843 213.647 207.987 211.699V211.699Z" fill="#FDB782"/>
<path d="M178.94 138.549C178.763 125.619 178.586 124.734 175.043 124.734C171.501 124.734 171.324 124.025 172.209 114.284C174.512 87.0078 194.349 66.4621 221.094 63.274C232.606 62.0342 241.64 65.0452 244.296 71.4214C245.89 75.318 247.839 76.735 252.621 77.4434C267.676 79.9231 277.772 94.4467 277.949 113.753C277.949 123.494 277.594 124.734 274.406 124.734C271.218 124.734 270.864 125.974 270.687 138.549V152.187L266.436 139.966C262.185 127.568 260.06 124.734 254.746 124.734C253.152 124.734 250.495 123.14 248.724 121.192C245.536 117.649 245.536 117.649 241.64 121.192C238.451 124.203 235.086 124.734 213.301 125.088L188.504 125.619L184.608 137.132C182.305 143.508 180.18 149.53 179.825 150.416C179.471 151.479 178.94 145.988 178.94 138.549V138.549Z" fill="url(#paint1_linear)"/>
</g>
<g filter="url(#filter1_d)">
<path d="M322.405 218.651C321.519 217.057 337.637 158.785 339.585 157.014C340.117 156.482 342.065 156.482 344.013 157.014C348.087 158.431 348.087 158.608 339.054 189.958C331.261 217.942 330.198 220.068 326.478 220.068C324.707 220.068 322.936 219.359 322.405 218.651V218.651Z" fill="white"/>
<path d="M296.546 199.699L285.033 188.186L296.723 176.497C307.704 165.515 308.59 164.984 311.423 167.995C314.434 170.829 314.08 171.36 306.287 179.331L297.963 187.655L303.099 192.969C314.789 205.19 314.612 205.013 311.069 208.201C308.058 211.035 307.173 210.503 296.546 199.699V199.699Z" fill="white"/>
<path d="M357.828 207.846C354.64 204.304 354.817 204.127 362.787 195.979L371.112 187.655L362.787 179.153C354.64 170.829 354.463 170.475 357.651 167.995C361.016 165.515 362.079 166.224 372.706 176.674L384.219 188.186L372.529 199.699C361.193 211.212 361.016 211.389 357.828 207.846Z" fill="white"/>
</g>
<g filter="url(#filter2_dd)">
<path d="M135.143 305.667C134.792 302.694 137.115 300.08 140.109 300.08H307.746C310.74 300.08 313.063 302.694 312.712 305.667L297.777 432.048C297.48 434.565 295.346 436.461 292.812 436.461H155.043C152.509 436.461 150.375 434.565 150.078 432.048L135.143 305.667Z" fill="#363636"/>
<rect x="145.11" y="415.207" width="157.635" height="21.2541" rx="4" fill="#202020"/>
<path d="M224.813 349.673L240.152 358.529V376.241L224.813 385.097L209.474 376.241V358.529L224.813 349.673Z" fill="#202020"/>
</g>
<defs>
<filter id="filter0_dd" x="105" y="58" width="239.626" height="374.605" filterUnits="userSpaceOnUse" color-interpolation-filters="sRGB">
<feFlood flood-opacity="0" result="BackgroundImageFix"/>
<feColorMatrix in="SourceAlpha" type="matrix" values="0 0 0 0 0 0 0 0 0 0 0 0 0 0 0 0 0 0 127 0"/>
<feOffset dx="5"/>
<feGaussianBlur stdDeviation="2.5"/>
<feColorMatrix type="matrix" values="0 0 0 0 0 0 0 0 0 0 0 0 0 0 0 0 0 0 0.5 0"/>
<feBlend mode="normal" in2="BackgroundImageFix" result="effect1_dropShadow"/>
<feColorMatrix in="SourceAlpha" type="matrix" values="0 0 0 0 0 0 0 0 0 0 0 0 0 0 0 0 0 0 127 0"/>
<feOffset dx="-5"/>
<feGaussianBlur stdDeviation="2.5"/>
<feColorMatrix type="matrix" values="0 0 0 0 0 0 0 0 0 0 0 0 0 0 0 0 0 0 0.5 0"/>
<feBlend mode="normal" in2="effect1_dropShadow" result="effect2_dropShadow"/>
<feBlend mode="normal" in="SourceGraphic" in2="effect2_dropShadow" result="shape"/>
</filter>
<filter id="filter1_d" x="284.033" y="151.615" width="109.186" height="73.4524" filterUnits="userSpaceOnUse" color-interpolation-filters="sRGB">
<feFlood flood-opacity="0" result="BackgroundImageFix"/>
<feColorMatrix in="SourceAlpha" type="matrix" values="0 0 0 0 0 0 0 0 0 0 0 0 0 0 0 0 0 0 127 0"/>
<feOffset dx="4"/>
<feGaussianBlur stdDeviation="2.5"/>
<feColorMatrix type="matrix" values="0 0 0 0 0 0 0 0 0 0 0 0 0 0 0 0 0 0 0.5 0"/>
<feBlend mode="normal" in2="BackgroundImageFix" result="effect1_dropShadow"/>
<feBlend mode="normal" in="SourceGraphic" in2="effect1_dropShadow" result="shape"/>
</filter>
<filter id="filter2_dd" x="125.108" y="280.08" width="197.639" height="166.381" filterUnits="userSpaceOnUse" color-interpolation-filters="sRGB">
<feFlood flood-opacity="0" result="BackgroundImageFix"/>
<feColorMatrix in="SourceAlpha" type="matrix" values="0 0 0 0 0 0 0 0 0 0 0 0 0 0 0 0 0 0 127 0"/>
<feOffset dy="5"/>
<feGaussianBlur stdDeviation="2.5"/>
<feColorMatrix type="matrix" values="0 0 0 0 0 0 0 0 0 0 0 0 0 0 0 0 0 0 0.5 0"/>
<feBlend mode="normal" in2="BackgroundImageFix" result="effect1_dropShadow"/>
<feColorMatrix in="SourceAlpha" type="matrix" values="0 0 0 0 0 0 0 0 0 0 0 0 0 0 0 0 0 0 127 0"/>
<feOffset dy="-10"/>
<feGaussianBlur stdDeviation="5"/>
<feColorMatrix type="matrix" values="0 0 0 0 1 0 0 0 0 1 0 0 0 0 1 0 0 0 0.14 0"/>
<feBlend mode="normal" in2="effect1_dropShadow" result="effect2_dropShadow"/>
<feBlend mode="normal" in="SourceGraphic" in2="effect2_dropShadow" result="shape"/>
</filter>
<linearGradient id="paint0_linear" x1="115" y1="225.691" x2="334.626" y2="328.419" gradientUnits="userSpaceOnUse">
<stop stop-color="#5F499E"/>
<stop offset="1" stop-color="#9B79FC"/>
</linearGradient>
<linearGradient id="paint1_linear" x1="171.678" y1="62.7427" x2="277.949" y2="151.302" gradientUnits="userSpaceOnUse">
<stop stop-color="#202020"/>
<stop offset="1" stop-color="#505050"/>
</linearGradient>
</defs>
</svg>
